<?xml version="1.0" encoding="iso-8859-1"?>
<!-- Generator: Adobe Illustrator 19.0.0, SVG Export Plug-In . SVG Version: 6.00 Build 0)  -->
<svg version="1.1" id="Capa_1" xmlns="http://www.w3.org/2000/svg" xmlns:xlink="http://www.w3.org/1999/xlink" x="0px" y="0px"
	 viewBox="0 0 512 512" style="enable-background:new 0 0 512 512;" xml:space="preserve">
<path style="fill:#5B699C;" d="M256,0C114.842,0,0,114.843,0,256c0,141.158,114.842,256,256,256s256-114.842,256-256
	C512,114.843,397.158,0,256,0z"/>
<path style="fill:#2D4175;" d="M256,0v512c141.158,0,256-114.842,256-256C512,114.843,397.158,0,256,0z"/>
<g>
	<path style="fill:#D4CBF6;" d="M256,418.909c-81.579,0-147.948-66.368-147.948-147.946c0-36.349,13.309-71.298,37.474-98.413
		c8.555-9.598,23.265-10.44,32.86-1.888c9.596,8.552,10.44,23.262,1.89,32.858c-16.559,18.578-25.678,42.529-25.678,67.443
		c0,55.914,45.489,101.401,101.402,101.401s101.402-45.487,101.402-101.401c0-24.916-9.118-48.865-25.676-67.441
		c-8.554-9.596-7.708-24.306,1.888-32.86c9.593-8.554,24.304-7.709,32.858,1.888c24.166,27.111,37.475,62.062,37.475,98.413
		C403.948,352.541,337.579,418.909,256,418.909z"/>
	<path style="fill:#D4CBF6;" d="M256,239.376c-12.853,0-23.273-10.418-23.273-23.273v-99.739c0-12.851,10.42-23.273,23.273-23.273
		s23.273,10.422,23.273,23.273v99.739C279.273,228.957,268.853,239.376,256,239.376z"/>
</g>
<g>
	<path style="fill:#AB99EC;" d="M366.473,172.55c-8.553-9.598-23.265-10.44-32.858-1.888c-9.596,8.553-10.44,23.263-1.888,32.86
		c16.558,18.576,25.676,42.525,25.676,67.441c0,55.914-45.489,101.401-101.402,101.401v46.545
		c81.579,0,147.948-66.368,147.948-147.946C403.948,234.612,390.639,199.661,366.473,172.55z"/>
	<path style="fill:#AB99EC;" d="M279.273,216.103v-99.739c0-12.851-10.42-23.273-23.273-23.273v146.285
		C268.853,239.376,279.273,228.957,279.273,216.103z"/>
</g>
<g>
</g>
<g>
</g>
<g>
</g>
<g>
</g>
<g>
</g>
<g>
</g>
<g>
</g>
<g>
</g>
<g>
</g>
<g>
</g>
<g>
</g>
<g>
</g>
<g>
</g>
<g>
</g>
<g>
</g>
</svg>
