<svg id="Layer_5" enable-background="new 0 0 64 64" height="512" viewBox="0 0 64 64" width="512" xmlns="http://www.w3.org/2000/svg"><path d="m62 6v2h-2-22-4-4-4-2v-2c0-2.21 1.79-4 4-4h30c2.21 0 4 1.79 4 4z" fill="#aab2bd"/><path d="m60 18v4h-10-14-10v-4h4 4 4 7 9z" fill="#aab2bd"/><g fill="#e6e9ed"><path d="m38 26h8c-.98 0-1.81.7-1.97 1.67l-.38 4.33h-17.65v-10h10v2c0 1.1.9 2 2 2z"/><path d="m60 22v10h-12.35l.32-3.67c.18-1.09-.55-2.12-1.64-2.3-.11-.02-.22-.03-.33-.03h2c1.1 0 2-.9 2-2v-2z"/><path d="m42 15c0 1.66 1.34 3 3 3h-7v-10h22v10h-6v-6h-9c-.83 0-1.58.34-2.12.88s-.88 1.29-.88 2.12z"/></g><path d="m30 8h4v10h-4z" fill="#ff826e"/><path d="m34 8h4v10h-4z" fill="#b4dd7f"/><path d="m26 8h4v10h-4z" fill="#b4dd7f"/><path d="m54 12v6h-9c-1.66 0-3-1.34-3-3 0-.83.34-1.58.88-2.12s1.29-.88 2.12-.88z" fill="#ff826e"/><path d="m50 22v2c0 1.1-.9 2-2 2h-2-8c-1.1 0-2-.9-2-2v-2z" fill="#fcd770"/><path d="m2 40h20v22h-20z" fill="#cf9e76"/><path d="m30 36v4h-8-20v-4h4 12z" fill="#d3a06c"/><path d="m18 36h-12v-14c0-2.21 1.79-4 4-4h2.79l.67 4h-2.46c-.55 0-1 .45-1 1v9h4c2.21 0 4 1.79 4 4z" fill="#aab2bd"/><path d="m19.96 24.51c.13.79-.05 1.58-.52 2.23-.47.66-1.16 1.09-1.95 1.22-.16.03-.33.04-.49.04-1.47 0-2.72-1.06-2.96-2.51l-.58-3.49-.67-4-.75-4.51c-.13-.79.05-1.58.52-2.23.47-.66 1.16-1.09 1.95-1.22.16-.03.33-.04.49-.04 1.47 0 2.72 1.06 2.96 2.51z" fill="#e6e9ed"/><path d="m33.69 50-3.69 12h-4l3.69-12z" fill="#b27946"/><path d="m42.24 49.78 3.76 12.22h-4l-3.69-12h2.3c.56 0 1.11-.08 1.63-.22z" fill="#b27946"/><path d="m42.24 49.78c-.52.14-1.07.22-1.63.22h-2.3-4.62-4-1.69c-1.1 0-2-.9-2-2s.9-2 2-2h12.61c.98 0 1.81-.7 1.97-1.67l1.07-12.33.38-4.33c.16-.97.99-1.67 1.97-1.67.11 0 .22.01.33.03 1.09.18 1.82 1.21 1.64 2.3l-.32 3.67-1.12 12.99c-.4 2.35-2.09 4.17-4.29 4.79z" fill="#d3a06c"/><path d="m31 41v-6h-12.101c-.465-2.279-2.484-4-4.899-4h-3v-8h1.612l.443 2.654c.32 1.939 1.979 3.346 3.944 3.346.219 0 .435-.018.657-.055 1.053-.175 1.976-.75 2.599-1.621.621-.871.866-1.93.69-2.982l-2-11.996c-.355-2.15-2.339-3.668-4.602-3.292-1.055.176-1.977.751-2.598 1.62-.622.87-.867 1.93-.691 2.983l.558 3.343h-1.612c-2.757 0-5 2.243-5 5v13h-4v5 1 22h22v-22zm-17.627-29.163c.311-.435.771-.722 1.299-.81.111-.018.22-.027.327-.027.983 0 1.813.703 1.974 1.673l2 11.997c.088.526-.035 1.056-.346 1.491-.312.436-.772.724-1.299.811-1.109.183-2.123-.568-2.301-1.646l-2-11.998c-.088-.526.035-1.056.346-1.491zm-6.373 10.163c0-1.654 1.346-3 3-3h1.945l.333 2h-1.278c-1.103 0-2 .897-2 2v10h5c1.302 0 2.402.839 2.816 2h-9.816zm-4 15h26v2h-26zm18 24h-18v-20h18z"/><path d="m63 6c0-2.757-2.243-5-5-5h-30c-2.757 0-5 2.243-5 5v3h2v24h17.563l-.965 11.165c-.081.483-.495.835-.987.835h-12.611c-1.654 0-3 1.346-3 3s1.346 3 3 3h.338l-3.692 12h6.092l3.693-12h3.138l3.693 12h6.092l-3.881-12.613c2.086-.936 3.647-2.873 4.052-5.313l1.044-12.074h12.431v-24h2zm-34 3v8h-2v-8zm14 6c0-1.103.897-2 2-2h8v4h-8c-1.103 0-2-.897-2-2zm2 4h10 4v2h-32v-2zm3 6h-10c-.552 0-1-.449-1-1v-1h12v1c0 .551-.448 1-1 1zm-13-8v-8h2v8zm-2 0h-2v-8h2zm-6 14v-8h8v1c0 1.654 1.346 3 3 3h5.186c-.068.186-.121.38-.155.584l-.295 3.416zm2.262 30h-1.908l3.078-10h1.907zm15.384 0h-1.908l-3.077-10h.95c.318 0 .629-.028.936-.069zm.897-16.178c-.403 2.421-2.478 4.178-4.932 4.178h-12.611c-.552 0-1-.449-1-1s.448-1 1-1h12.611c1.473 0 2.718-1.054 2.969-2.585l1.434-16.58c.09-.538.588-.916 1.151-.821.262.044.492.188.647.406.156.218.218.482.164.823zm3.199-13.822.217-2.506c.092-.551.021-1.102-.184-1.608 1.277-.345 2.225-1.502 2.225-2.886v-1h8v8zm10.258-14h-4v-6h-10c-2.206 0-4 1.794-4 4 0 .732.212 1.409.556 2h-2.556v-8h20zm2-10h-36v-1c0-1.654 1.346-3 3-3h30c1.654 0 3 1.346 3 3z"/><path d="m5 57h2v2h-2z"/><path d="m5 49h2v2h-2z"/><path d="m5 53h2v2h-2z"/><path d="m17 43h2v2h-2z"/><path d="m9 43h2v2h-2z"/><path d="m13 43h2v2h-2z"/></svg>