<?xml version="1.0" encoding="iso-8859-1"?>
<!-- Generator: Adobe Illustrator 19.0.0, SVG Export Plug-In . SVG Version: 6.00 Build 0)  -->
<svg version="1.1" id="Layer_1" xmlns="http://www.w3.org/2000/svg" xmlns:xlink="http://www.w3.org/1999/xlink" x="0px" y="0px"
	 viewBox="0 0 512 512" style="enable-background:new 0 0 512 512;" xml:space="preserve">
<g transform="translate(1 1)">
	<path style="fill:#FFE100;" d="M442.733,502.467H67.267c-18.773,0-34.133-15.36-34.133-34.133V41.667
		c0-18.773,15.36-34.133,34.133-34.133h375.467c18.773,0,34.133,15.36,34.133,34.133v426.667
		C476.867,487.107,461.507,502.467,442.733,502.467"/>
	<path style="fill:#FFA800;" d="M468.333,7.533h-25.6c18.773,0,34.133,15.36,34.133,34.133v426.667
		c0,18.773-15.36,34.133-34.133,34.133h25.6c18.773,0,34.133-15.36,34.133-34.133V41.667
		C502.467,22.893,487.107,7.533,468.333,7.533"/>
	<path style="fill:#FFFFFF;" d="M33.133,468.333V41.667c0-18.773,15.36-34.133,34.133-34.133h-25.6
		c-18.773,0-34.133,15.36-34.133,34.133v426.667c0,18.773,15.36,34.133,34.133,34.133h25.6
		C48.493,502.467,33.133,487.107,33.133,468.333"/>
	<path style="fill:#63D3FD;" d="M425.667,92.867V178.2h-76.8c-9.387,0-17.067,7.68-17.067,17.067v51.2h85.333V331.8H331.8v170.667
		h-85.333V331.8H178.2v-85.333h68.267v-51.2c0-53.76,40.96-98.133,93.867-102.4H425.667z"/>
	<path d="M340.333,511h-102.4V340.333h-68.267v-102.4h68.267v-42.667c0-57.173,44.373-105.813,101.547-110.933h94.72v102.4h-85.333
		c-5.12,0-8.533,3.413-8.533,8.533v42.667h85.333v102.4h-85.333V511z M255,493.933h68.267V323.267H408.6V255h-85.333v-59.733
		c0-14.507,11.093-25.6,25.6-25.6h68.267V101.4h-76.8C292.547,105.667,255,146.627,255,195.267V255h-68.267v68.267H255V493.933z"/>
	<path d="M468.333,511H41.667C17.773,511-1,492.227-1,468.333V41.667C-1,17.773,17.773-1,41.667-1h426.667
		C492.227-1,511,17.773,511,41.667v298.667c0,5.12-3.413,8.533-8.533,8.533c-5.12,0-8.533-3.413-8.533-8.533V41.667
		c0-14.507-11.093-25.6-25.6-25.6H41.667c-14.507,0-25.6,11.093-25.6,25.6v426.667c0,14.507,11.093,25.6,25.6,25.6h426.667
		c14.507,0,25.6-11.093,25.6-25.6V408.6c0-5.12,3.413-8.533,8.533-8.533c5.12,0,8.533,3.413,8.533,8.533v59.733
		C511,492.227,492.227,511,468.333,511z"/>
	<path d="M511,374.467c0-5.12-3.413-8.533-8.533-8.533c-5.12,0-8.533,3.413-8.533,8.533c0,5.12,3.413,8.533,8.533,8.533
		C507.587,383,511,379.587,511,374.467"/>
</g>
<g>
</g>
<g>
</g>
<g>
</g>
<g>
</g>
<g>
</g>
<g>
</g>
<g>
</g>
<g>
</g>
<g>
</g>
<g>
</g>
<g>
</g>
<g>
</g>
<g>
</g>
<g>
</g>
<g>
</g>
</svg>
