<svg id="Layer_3" enable-background="new 0 0 64 64" height="512" viewBox="0 0 64 64" width="512" xmlns="http://www.w3.org/2000/svg"><path d="m62 37v-10h-4.485c-.678-3.481-2.047-6.716-3.964-9.55l3.449-3.45-7-7-3.45 3.45c-2.834-1.918-6.069-3.286-9.55-3.965v-4.485h-10v4.485c-3.481.678-6.716 2.047-9.55 3.964l-3.45-3.449-7 7 3.45 3.45c-1.918 2.834-3.286 6.069-3.965 9.55h-4.485v10h4.485c.678 3.481 2.047 6.716 3.964 9.55l-3.449 3.45 7 7 3.45-3.45c2.834 1.917 6.069 3.286 9.55 3.964v4.486h10v-4.485c3.481-.678 6.716-2.047 9.55-3.964l3.45 3.449 7-7-3.45-3.45c1.917-2.834 3.286-6.069 3.964-9.55z" fill="#999"/><circle cx="32" cy="32" fill="#fff" r="22"/><path d="m43 21v-3l4-4v3h3l-4 4z" fill="#f4b23e"/><circle cx="32" cy="32" fill="#ec4c5f" r="14"/><circle cx="32" cy="32" fill="#ccc" r="10"/><circle cx="32" cy="32" fill="#ec4c5f" r="6"/><path d="m37 63h-10c-.553 0-1-.447-1-1v-3.674c-3-.68-5.824-1.852-8.417-3.494l-2.876 2.875c-.391.391-1.023.391-1.414 0l-7-7c-.391-.391-.391-1.023 0-1.414l2.875-2.876c-1.643-2.593-2.814-5.417-3.494-8.417h-3.674c-.553 0-1-.447-1-1v-10c0-.552.447-1 1-1h3.674c.68-3 1.852-5.824 3.494-8.418l-2.875-2.875c-.188-.187-.293-.442-.293-.707s.105-.52.293-.707l7-7c.391-.391 1.023-.391 1.414 0l2.876 2.875c2.594-1.643 5.419-2.815 8.417-3.494v-3.674c0-.552.447-1 1-1h10c.553 0 1 .448 1 1v3.674c2.998.679 5.823 1.852 8.417 3.494l2.876-2.875c.391-.391 1.023-.391 1.414 0l7 7c.188.187.293.442.293.707s-.105.52-.293.707l-2.875 2.875c1.643 2.594 2.814 5.418 3.494 8.418h3.674c.553 0 1 .448 1 1v10c0 .553-.447 1-1 1h-3.674c-.68 3-1.852 5.824-3.494 8.417l2.875 2.876c.391.391.391 1.023 0 1.414l-7 7c-.391.391-1.023.391-1.414 0l-2.876-2.875c-2.593 1.643-5.417 2.814-8.417 3.494v3.674c0 .553-.447 1-1 1zm-9-2h8v-3.485c0-.479.339-.89.809-.981 3.308-.645 6.396-1.928 9.181-3.812.398-.268.929-.218 1.268.121l2.742 2.743 5.586-5.586-2.743-2.743c-.339-.339-.39-.87-.121-1.268 1.884-2.784 3.167-5.873 3.812-9.181.091-.469.502-.808.981-.808h3.485v-8h-3.485c-.479 0-.89-.339-.981-.809-.645-3.308-1.927-6.396-3.812-9.181-.269-.397-.218-.929.121-1.268l2.743-2.742-5.586-5.586-2.743 2.743c-.339.34-.869.39-1.268.121-2.785-1.885-5.874-3.167-9.181-3.811-.469-.092-.808-.503-.808-.982v-3.485h-8v3.485c0 .479-.339.89-.809.981-3.307.644-6.396 1.926-9.181 3.811-.396.269-.928.219-1.268-.121l-2.742-2.742-5.586 5.586 2.743 2.743c.339.339.39.871.121 1.268-1.885 2.785-3.167 5.874-3.812 9.181-.091.469-.502.808-.981.808h-3.485v8h3.485c.479 0 .89.339.981.809.645 3.308 1.928 6.396 3.812 9.181.269.397.218.929-.121 1.268l-2.743 2.742 5.586 5.586 2.743-2.743c.34-.339.871-.389 1.268-.121 2.784 1.884 5.873 3.167 9.181 3.812.469.091.808.502.808.981z"/><path d="m32 55c-12.683 0-23-10.317-23-23 0-12.682 10.317-23 23-23 5.326 0 10.518 1.862 14.62 5.244l-1.271 1.543c-3.745-3.087-8.487-4.787-13.349-4.787-11.579 0-21 9.42-21 21 0 11.579 9.421 21 21 21s21-9.421 21-21c0-4.863-1.7-9.604-4.788-13.35l1.543-1.272c3.383 4.103 5.245 9.296 5.245 14.622 0 12.683-10.317 23-23 23z"/><path d="m32 47c-8.271 0-15-6.729-15-15s6.729-15 15-15 15 6.729 15 15-6.729 15-15 15zm0-28c-7.168 0-13 5.832-13 13s5.832 13 13 13 13-5.832 13-13-5.832-13-13-13z"/><path d="m32 43c-6.065 0-11-4.935-11-11s4.935-11 11-11 11 4.935 11 11-4.935 11-11 11zm0-20c-4.963 0-9 4.038-9 9 0 4.963 4.037 9 9 9s9-4.037 9-9c0-4.962-4.037-9-9-9z"/><path d="m32 39c-3.859 0-7-3.141-7-7 0-3.86 3.141-7 7-7s7 3.14 7 7c0 3.859-3.141 7-7 7zm0-12c-2.757 0-5 2.243-5 5s2.243 5 5 5 5-2.243 5-5-2.243-5-5-5z"/><path d="m31 18h2v8h-2z"/><path d="m31 38h2v8h-2z"/><path d="m38 31h8v2h-8z"/><path d="m18 31h8v2h-8z"/><path d="m46 22h-3c-.553 0-1-.448-1-1v-3c0-.265.105-.52.293-.707l4-4c.286-.287.716-.372 1.09-.217s.617.52.617.924v2h2c.404 0 .77.244.924.617.155.374.069.804-.217 1.09l-4 4c-.187.188-.441.293-.707.293zm-2-2h1.586l2-2h-.586c-.553 0-1-.448-1-1v-.586l-2 2z"/><path d="m28.515 26h16.971v2h-16.971z" transform="matrix(.707 -.707 .707 .707 -8.255 34.071)"/><path d="m35 34h-4c-.553 0-1-.447-1-1v-4h2v3h3z"/></svg>