<svg id="Capa_1" enable-background="new 0 0 511.998 511.998" height="512" viewBox="0 0 511.998 511.998" width="512" xmlns="http://www.w3.org/2000/svg"><path d="m338.081 427.57c0-42.115 33.957-76.257 75.843-76.257 12.116 0 23.56 2.872 33.719 7.952 14.304-29.11 22.397-61.831 22.523-96.446.175-47.836-14.88-92.171-40.599-128.423l-36.931-9.843c-2.224-.593-4.528-2.888-5.126-5.099l-10.045-37.304c-35.918-25.63-79.845-40.78-127.33-40.953-121.962-.445-221.194 98.059-221.64 220.013-.445 121.952 98.066 221.176 220.031 221.622 34.812.127 67.766-7.819 97.106-22.059-4.836-10.038-7.551-21.301-7.551-33.203z" fill="#fb2b3a"/><path d="m53.496 261.209c.429-117.515 92.588-213.24 208.419-219.656-3.9-.219-7.827-.342-11.779-.357-121.962-.445-221.194 98.059-221.64 220.013-.445 121.952 98.066 221.176 220.031 221.622 4.44.016 8.845-.114 13.221-.356-116.465-6.549-208.683-103.266-208.252-221.266z" fill="#e41f2d"/><path d="m397.698 353.081c16.252-26.352 25.691-57.322 25.812-90.433.171-46.521-17.787-90.323-50.565-123.339-32.777-33.015-76.453-51.291-122.979-51.46l-.651-.001c-95.685 0-173.814 77.845-174.162 173.531-.17 46.521 17.789 90.323 50.567 123.34 32.777 33.016 76.453 51.291 122.978 51.46l.653.002c33.156 0 64.2-9.353 90.634-25.551 6.48-28.717 29.065-51.269 57.713-57.549z" fill="#fff"/><path d="m150.719 384.718c-32.778-33.017-50.737-76.818-50.567-123.34.334-91.496 71.787-166.671 161.702-173.079-3.939-.278-7.902-.436-11.888-.45l-.651-.002c-95.685 0-173.814 77.845-174.162 173.531-.171 46.521 17.789 90.323 50.567 123.34 32.777 33.016 76.453 51.291 122.977 51.46l.653.002c4.191 0 8.345-.158 12.463-.452-42.041-2.967-81.124-20.821-111.094-51.01z" fill="#efe2dd"/><path d="m248.808 389.527c-34.004-.124-65.979-13.504-89.979-37.677-23.999-24.172-37.146-56.241-37.021-90.301.255-70.057 57.455-127.05 127.506-127.05l.541.001c34.004.123 65.98 13.504 89.978 37.675 24 24.172 37.147 56.242 37.021 90.301-.255 70.037-57.422 127.017-127.442 127.052z" fill="#fb2b3a"/><path d="m188.829 351.85c-23.999-24.172-37.146-56.241-37.021-90.301.236-65.01 49.511-118.761 112.586-126.17-4.793-.56-9.644-.861-14.538-.879l-.541-.001c-70.052 0-127.252 56.994-127.506 127.05-.124 34.06 13.022 66.129 37.021 90.301s55.974 37.553 89.979 37.677l.605.002c5.026-.003 9.982-.308 14.859-.881-28.506-3.329-54.899-16.105-75.444-36.798z" fill="#e41f2d"/><path d="m248.927 342.875c-21.512-.079-41.767-8.563-56.988-23.893-15.217-15.327-23.556-35.664-23.476-57.262.163-44.426 36.431-80.569 80.851-80.569l.407.002c21.527.077 41.784 8.562 57.002 23.891s23.555 35.665 23.477 57.264c-.159 44.383-36.382 80.513-80.749 80.57z" fill="#fff"/><path d="m216.939 318.982c-15.217-15.327-23.556-35.664-23.476-57.262.147-40.202 29.862-73.618 68.427-79.609-3.993-.617-8.058-.944-12.169-.958l-.407-.002c-44.42 0-80.688 36.144-80.851 80.569-.08 21.599 8.259 41.935 23.476 57.262 15.221 15.33 35.476 23.814 56.988 23.893l.523.002c4.189-.005 8.305-.335 12.325-.96-16.907-2.613-32.52-10.53-44.836-22.935z" fill="#efe2dd"/><path d="m249.06 296.223c-9.163-.032-17.478-3.528-24.009-10.107s-9.965-14.956-9.932-24.225c.069-18.774 15.374-34.054 34.13-34.088l.302.001c9.209.034 17.531 3.528 24.06 10.107 6.531 6.579 9.968 14.955 9.933 24.225-.068 18.748-15.348 34.022-34.075 34.09z" fill="#fb2b3a"/><path d="m245.05 286.116c-6.531-6.579-9.965-14.956-9.932-24.225.056-15.362 10.317-28.379 24.319-32.624-3.141-.956-6.452-1.451-9.887-1.463l-.302-.001c-18.756.035-34.061 15.314-34.13 34.088-.033 9.269 3.401 17.646 9.932 24.225s14.847 10.075 24.009 10.107l.409.002c3.385-.012 6.654-.528 9.744-1.464-5.268-1.607-10.066-4.519-14.162-8.645z" fill="#e41f2d"/><path d="m462.065 55.527c-2.215-.624-4.54-2.938-5.17-5.141l-11.451-40.192c-.628-2.204-2.474-2.682-4.1-1.061l-62.932 62.604c-1.629 1.62-2.475 4.755-1.875 6.966l10.973 40.752c.598 2.211 2.902 4.506 5.126 5.099l40.966 10.918c2.222.594 5.371-.247 7.001-1.867l62.93-62.605c1.63-1.621 1.148-3.456-1.066-4.079z" fill="#62dbfb"/><path d="m409.712 126.913-11.664-43.318c-.638-2.351.262-5.683 1.993-7.405l50.027-49.766-4.624-16.229c-.628-2.204-2.474-2.682-4.1-1.061l-62.932 62.604c-1.629 1.62-2.475 4.755-1.875 6.966l10.973 40.752c.598 2.211 2.902 4.506 5.126 5.099l18.436 4.914c-.638-.802-1.125-1.685-1.36-2.556z" fill="#01d0fb"/><ellipse cx="413.924" cy="427.57" fill="#97d729" rx="75.842" ry="76.256"/><path d="m370.315 427.57c0-36.552 25.585-67.082 59.726-74.515-5.196-1.131-10.584-1.742-16.117-1.742-41.886 0-75.843 34.142-75.843 76.257s33.957 76.256 75.843 76.256c5.533 0 10.921-.611 16.117-1.742-34.141-7.433-59.726-37.963-59.726-74.514z" fill="#8bc727"/><path d="m508.821 76.319c2.677-2.661 3.753-6.255 2.88-9.615-.873-3.361-3.565-5.979-7.198-7.001l-32.076-9.047 9.757-9.706c2.937-2.921 2.949-7.67.028-10.606-2.923-2.937-7.672-2.949-10.606-.027l-9.841 9.789-9.108-31.967c-1.03-3.614-3.645-6.293-6.994-7.167-3.354-.873-6.945.191-9.608 2.843l-62.932 62.604c-.734.73-1.378 1.562-1.935 2.459-9.941-6.267-20.441-11.835-31.468-16.593-3.802-1.641-8.216.112-9.857 3.915s.112 8.217 3.916 9.857c13.213 5.7 25.62 12.641 37.14 20.623l9.302 34.546-7.496 7.457c-31.826-29.508-72.49-46.415-115.893-48.17v-31.685c15.188.528 30.248 2.652 44.862 6.338 4.01 1.016 8.092-1.421 9.106-5.438 1.013-4.017-1.422-8.094-5.438-9.107-15.81-3.988-32.104-6.266-48.53-6.8v-13.62c0-4.142-3.358-7.5-7.5-7.5s-7.5 3.358-7.5 7.5v13.629c-57.872 1.85-112.062 25.148-153.369 66.15-41.703 41.396-65.458 96.053-67.338 154.534h-13.625c-4.142 0-7.5 3.358-7.5 7.5s3.358 7.5 7.5 7.5h13.631c1.851 57.867 25.148 112.052 66.154 153.355 41.4 41.699 96.06 65.453 154.545 67.333v13.623c0 4.142 3.358 7.5 7.5 7.5s7.5-3.358 7.5-7.5v-13.623c29.953-.96 58.912-7.679 85.616-19.615 14.586 24.385 41.164 40.739 71.478 40.739 36.814 0 69.718-24.782 80.018-60.264 1.154-3.978-1.135-8.139-5.112-9.293-3.976-1.152-8.139 1.135-9.294 5.112-8.449 29.113-35.431 49.446-65.611 49.446-37.685 0-68.343-30.844-68.343-68.756 0-37.913 30.658-68.757 68.343-68.757 32.974 0 61.238 23.637 67.207 56.203.746 4.074 4.649 6.774 8.729 6.025 4.074-.747 6.771-4.655 6.024-8.729-4.408-24.054-18.815-44.095-38.425-56.165 12.215-26.971 19.109-56.282 20.086-86.632h13.617c4.143 0 7.5-3.358 7.5-7.5s-3.357-7.5-7.5-7.5h-13.62c-1.333-41.014-13.58-79.972-34.489-113.466 1.04-.599 2.007-1.302 2.838-2.127zm-48.6-13.52 31.883 8.992-20.43 20.324-32.275-8.602zm-19.646-42.323 9.037 31.719-20.917 20.808-8.647-32.108zm-56.661 56.366 23.882-23.758 8.648 32.107-23.972 23.847-8.614-31.992c.013-.067.034-.141.056-.204zm-142.083-28.001v31.673c-94.094 3.846-170.153 79.836-174.012 174h-31.682c3.888-111.765 94.091-201.801 205.694-205.673zm0 426.349c-111.769-3.888-201.816-94.09-205.689-205.676h31.668c1.831 45.465 20.32 87.987 52.587 120.488 32.577 32.814 75.477 51.655 121.434 53.512zm15-.001v-31.68c26.437-1.082 51.442-7.866 73.831-19.144-.04 1.065-.081 2.129-.081 3.204 0 10.336 1.885 20.235 5.307 29.384-24.316 10.84-51.007 17.264-79.057 18.236zm76.622-69.387c-22.694 13.344-48.79 21.468-76.623 22.706v-3.99c0-4.142-3.358-7.5-7.5-7.5s-7.5 3.358-7.5 7.5v3.985c-41.929-1.847-81.048-19.111-110.79-49.069-29.455-29.67-46.402-68.442-48.224-109.92h3.998c4.142 0 7.5-3.358 7.5-7.5s-3.358-7.5-7.5-7.5h-3.984c3.838-85.902 73.174-155.173 159-158.991v3.987c0 4.142 3.358 7.5 7.5 7.5s7.5-3.358 7.5-7.5v-3.986c39.377 1.734 76.272 17.07 105.253 43.744l-22.469 22.352c-24.688-22.257-56.262-34.5-89.738-34.621l-.562-.001c-74.173 0-134.736 60.347-135.006 134.523-.132 36.064 13.79 70.02 39.199 95.612 25.41 25.594 59.246 39.761 95.276 39.893l.633.002c32.482-.017 63.903-11.814 88.474-33.219 24.33-21.195 40.314-50.305 45.008-81.965.607-4.097-2.222-7.911-6.319-8.519-4.099-.608-7.912 2.221-8.519 6.319-4.17 28.13-18.384 54.004-40.022 72.855-21.842 19.027-49.766 29.514-78.601 29.529l-.602-.002c-32.021-.117-62.096-12.71-84.684-35.461-22.586-22.75-34.961-52.932-34.844-84.989.24-65.936 54.075-119.578 119.986-119.578l.535.001c29.467.106 57.28 10.787 79.133 30.219l-22.507 22.39c-15.849-13.48-35.706-20.882-56.705-20.957l-.434-.001c-48.539 0-88.173 39.496-88.351 88.042-.087 23.601 9.023 45.823 25.653 62.574 16.63 16.75 38.75 26.022 62.283 26.109l.561.002c48.481-.063 88.065-39.559 88.239-88.043.076-21.115-7.227-41.113-20.669-57.089l22.5-22.384c15.789 17.917 25.72 39.675 28.808 63.385.535 4.108 4.299 7.004 8.406 6.468 4.107-.535 7.004-4.298 6.469-8.406-3.518-27.005-14.908-51.756-33.031-72.045l22.477-22.361c26.343 28.914 41.471 65.56 43.184 104.61h-3.997c-4.143 0-7.5 3.358-7.5 7.5s3.357 7.5 7.5 7.5h3.992c-1.252 28-9.468 54.229-22.943 77.004-28.874 7.573-51.686 30.357-59.443 59.286zm-89.439-138.498c1.465 1.473 3.391 2.21 5.317 2.21 1.913 0 3.826-.727 5.29-2.183l18.2-18.105c2.138 3.884 3.242 8.238 3.224 12.882-.054 14.624-11.987 26.564-26.54 26.617l-.409-.002c-.003 0-.006 0-.009 0-7.142-.025-13.613-2.754-18.713-7.892-5.099-5.136-7.78-11.676-7.754-18.913.054-14.649 12.006-26.589 26.606-26.616l.299.001c4.584.017 8.884 1.14 12.722 3.283l-18.205 18.11c-2.938 2.922-2.95 7.671-.028 10.608zm29.136-39.565c-6.872-4.848-14.895-7.404-23.575-7.436l-.34-.001c-22.864.042-41.533 18.687-41.617 41.562-.041 11.302 4.147 21.515 12.109 29.535 7.964 8.023 18.098 12.284 29.306 12.324l.463.002c22.826-.083 41.465-18.728 41.548-41.562.033-8.754-2.483-16.851-7.318-23.788l22.638-22.521c10.641 13.098 16.397 29.324 16.334 46.425-.145 40.253-33.008 73.045-73.221 73.097l-.523-.002c-19.527-.072-37.886-7.77-51.693-21.677s-21.371-32.356-21.298-51.951c.147-40.306 33.052-73.097 73.324-73.097l.407.001c16.995.061 33.098 5.899 46.09 16.571zm170.752 121.679c-9.347-3.619-19.462-5.605-29.978-5.605-.839 0-1.669.039-2.503.064 11.438-22.519 18.331-47.707 19.425-74.363h31.685c-.989 28.391-7.563 55.372-18.629 79.904zm18.628-94.904h-31.678c-1.732-43.042-18.404-83.437-47.55-115.196l7.525-7.486 34.222 9.121c22.656 32.892 36.038 72.093 37.481 113.561zm-27.009-126.433c-.079.029-.18.056-.263.07l-32.124-8.561 23.956-23.832 32.275 8.602z"/><path d="m439.723 402.063-34.895 35.089-16.706-16.797c-2.92-2.937-7.669-2.95-10.606-.029s-2.949 7.67-.028 10.606l22.023 22.144c1.407 1.416 3.321 2.211 5.317 2.211s3.91-.796 5.318-2.211l40.213-40.436c2.921-2.937 2.907-7.686-.029-10.606-2.938-2.921-7.686-2.909-10.607.029z"/></svg>