<svg id="Capa_1" enable-background="new 0 0 512 512" height="512" viewBox="0 0 512 512" width="512" xmlns="http://www.w3.org/2000/svg"><path d="m87.454 487.846 105.119-129.287-30.3-30.3-99.165 141.846c-12.29 12.29-24.7 7.487-24.7 7.487l-17.727 13.727c17.572 17.572 46.061 17.579 63.64 0 1.111-1.111 2.157-2.271 3.133-3.473z" fill="#616281"/><path d="m66.241 466.633.113.113c-1.054 1.124-2.128 2.242-3.246 3.359 5.855-5.855 5.855-15.358 0-21.213s-15.358-5.855-21.213 0c-5.862 5.862-5.855 15.358 0 21.213s15.351 5.862 21.213 0c-8.789 8.789-17.932 15.556-25.611 19.389-7.679 3.847-13.888 4.752-16.815 1.824-17.572-17.572-17.579-46.061 0-63.64 1.11-1.11 2.27-2.157 3.472-3.132 0 0 121.905-99.122 129.287-105.118l19.438 19.438z" fill="#7b7c9b"/><circle cx="309.5" cy="202.5" fill="#616281" r="195"/><path d="m309.5 37.5v330c91.127 0 165-73.873 165-165s-73.873-165-165-165z" fill="#bce8ff"/><path d="m444.5 202.5c0-91.127-60.442-165-135-165-91.127 0-165 73.873-165 165s73.873 165 165 165c74.558 0 135-73.873 135-165z" fill="#fff"/><path d="m309.5 67.5v270c74.559 0 135-60.442 135-135s-60.441-135-135-135z" fill="#ffbb54"/><path d="m414.5 202.5c0-74.558-47.01-135-105-135-74.559 0-135 60.442-135 135s60.441 135 135 135c57.99 0 105-60.442 105-135z" fill="#ffd45a"/><path d="m370.442 195.568h-15.942l-44.987 89.977c41.413-.01 74.987-33.561 74.987-74.977 0-7.764-6.294-15-14.058-15z" fill="#fa4087"/><path d="m354.5 210.568-90-15h-15.942c-7.764 0-14.058 7.236-14.058 15 0 40.583 31.871 73.603 72.432 74.957.865.029 1.722.02 2.581.02 24.936-.874 44.987-34.104 44.987-74.977z" fill="#fa71a3"/><path d="m324.5 195.568-15 30h30c8.284 0 15-6.716 15-15v-15z" fill="#fff7df"/><path d="m324.5 210.568v-15h-60v15c0 8.284 6.716 15 15 15h30c8.284 0 15-6.716 15-15z" fill="#fff"/><path d="m354.5 115.568c-8.25 0-15 6.75-15 15v20c0 8.25 6.75 15 15 15s15-6.75 15-15v-20c0-8.25-6.75-15-15-15z" fill="#474867"/><path d="m264.5 115.568c-8.25 0-15 6.75-15 15v20c0 8.25 6.75 15 15 15s15-6.75 15-15v-20c0-8.25-6.75-15-15-15z" fill="#474867"/><path d="m68.409 443.602c-4.249-4.249-9.899-6.59-15.909-6.59s-11.66 2.341-15.909 6.59c-4.25 4.25-6.591 9.9-6.591 15.91s2.341 11.66 6.59 15.91c4.25 4.25 9.9 6.59 15.91 6.59s11.66-2.341 15.909-6.59c4.25-4.25 6.591-9.9 6.591-15.91s-2.341-11.659-6.591-15.91zm-10.606 21.214c-1.416 1.417-3.3 2.197-5.303 2.197s-3.887-.78-5.304-2.197c-1.416-1.417-2.196-3.3-2.196-5.303s.78-3.886 2.197-5.303c1.416-1.417 3.3-2.197 5.303-2.197s3.887.78 5.303 2.197c1.417 1.417 2.197 3.3 2.197 5.303s-.78 3.886-2.197 5.303z"/><path d="m309.5.012c-111.659 0-202.5 90.841-202.5 202.5 0 41.768 12.494 81.573 36.205 115.581l-123.786 100.648c-1.404 1.143-2.765 2.371-4.042 3.648-9.916 9.916-15.377 23.1-15.377 37.123s5.461 27.207 15.377 37.123c10.235 10.235 23.678 15.352 37.122 15.352s26.891-5.118 37.127-15.354c1.288-1.289 2.515-2.649 3.646-4.041l100.647-123.786c34.007 23.711 73.813 36.206 115.581 36.206 111.659 0 202.5-90.841 202.5-202.5s-90.841-202.5-202.5-202.5zm0 390c-40.915 0-79.792-12.945-112.427-37.436-3.223-2.417-7.78-1.858-10.321 1.268l-105.121 129.288c-.81.997-1.689 1.972-2.614 2.897-14.622 14.619-38.412 14.621-53.032 0-7.085-7.083-10.985-16.5-10.985-26.517s3.9-19.434 10.986-26.519c.916-.917 1.891-1.796 2.896-2.614l129.286-105.119c3.126-2.542 3.686-7.099 1.268-10.321-24.491-32.635-37.436-71.512-37.436-112.427 0-103.388 84.112-187.5 187.5-187.5s187.5 84.113 187.5 187.5-84.112 187.5-187.5 187.5z"/><path d="m309.5 30.012c-40.28 0-79.481 14.187-110.383 39.946-3.182 2.652-3.61 7.381-.958 10.563 2.652 3.183 7.382 3.61 10.563.958 28.21-23.516 64-36.467 100.777-36.467 86.846 0 157.5 70.654 157.5 157.5s-70.654 157.5-157.5 157.5-157.499-70.654-157.499-157.5c0-36.777 12.951-72.567 36.467-100.778 2.652-3.182 2.224-7.911-.959-10.563-3.179-2.652-7.909-2.223-10.563.958-25.758 30.902-39.945 70.104-39.945 110.383 0 95.117 77.383 172.5 172.5 172.5s172.5-77.383 172.5-172.5-77.383-172.5-172.5-172.5z"/><path d="m306.682 293.033c.952.032 1.902.048 2.851.048 21.529 0 41.788-8.175 57.316-23.193 16.218-15.687 25.151-36.749 25.151-59.308 0-12.196-9.873-22.5-21.559-22.5h-121.882c-11.686 0-21.559 10.304-21.559 22.5 0 44.743 35 80.961 79.682 82.453zm-34.682-89.953h75v7.5c0 4.136-3.364 7.5-7.5 7.5h-60c-4.136 0-7.5-3.364-7.5-7.5zm-23.441 0h8.441v7.5c0 12.407 10.094 22.5 22.5 22.5h60c12.406 0 22.5-10.093 22.5-22.5v-7.5h8.441c3.371 0 6.559 3.645 6.559 7.5 0 18.457-7.309 35.69-20.579 48.525-13.266 12.829-30.745 19.554-49.239 18.937-36.551-1.221-65.182-30.854-65.182-67.462 0-3.855 3.188-7.5 6.559-7.5z"/><path d="m354.5 173.08c12.406 0 22.5-10.093 22.5-22.5v-20c0-12.407-10.094-22.5-22.5-22.5s-22.5 10.093-22.5 22.5v20c0 12.407 10.094 22.5 22.5 22.5zm-7.5-42.5c0-4.136 3.364-7.5 7.5-7.5s7.5 3.364 7.5 7.5v20c0 4.136-3.364 7.5-7.5 7.5s-7.5-3.364-7.5-7.5z"/><path d="m264.5 173.08c12.406 0 22.5-10.093 22.5-22.5v-20c0-12.407-10.094-22.5-22.5-22.5s-22.5 10.093-22.5 22.5v20c0 12.407 10.094 22.5 22.5 22.5zm-7.5-42.5c0-4.136 3.364-7.5 7.5-7.5s7.5 3.364 7.5 7.5v20c0 4.136-3.364 7.5-7.5 7.5s-7.5-3.364-7.5-7.5z"/><path d="m309.5 345.012c78.575 0 142.5-63.925 142.5-142.5s-63.925-142.5-142.5-142.5-142.5 63.926-142.5 142.5 63.925 142.5 142.5 142.5zm0-270c70.304 0 127.5 57.196 127.5 127.5s-57.196 127.5-127.5 127.5-127.5-57.196-127.5-127.5 57.196-127.5 127.5-127.5z"/></svg>