<svg height="512" viewBox="0 0 512 512" width="512" xmlns="http://www.w3.org/2000/svg"><g id="Filled_outline" data-name="Filled outline"><g fill="#60d1e0"><path d="m24 256c128.13-160 335.87-160 464 0-128.13 160-335.87 160-464 0z"/><path d="m408 360h16v16h-16z"/><path d="m32 312h16v16h-16z"/><path d="m80 96h24v16h-24z"/><path d="m464 176h16v16h-16z"/><path d="m384 32h16v16h-16z"/></g><path d="m376 256a119.9 119.9 0 1 1 -89.11-115.98 120.005 120.005 0 0 1 89.11 115.98z" fill="#348fd9"/><path d="m376 256a120.019 120.019 0 0 1 -227.84 52.7 120.4 120.4 0 0 0 138.73-168.68 120.045 120.045 0 0 1 89.11 115.98z" fill="#3086cd"/><path d="m256 288a32 32 0 1 1 32-32 32.036 32.036 0 0 1 -32 32z" fill="#2a71ad"/><path d="m256 288a32 32 0 1 0 -32-32 32.036 32.036 0 0 0 32 32zm0-48a16 16 0 1 1 -16 16 16.019 16.019 0 0 1 16-16z"/><path d="m256 320a64 64 0 1 0 -64-64 64.072 64.072 0 0 0 64 64zm0-112a48 48 0 1 1 -48 48 48.053 48.053 0 0 1 48-48z"/><path d="m351.913 251.913a96.006 96.006 0 0 0 -157.353-69.684l10.252 12.284a80.006 80.006 0 0 1 112.675 112.675l12.284 10.252a95.7 95.7 0 0 0 22.142-65.527z"/><path d="m252.59 335.928a80.006 80.006 0 0 1 -58.077-131.116l-12.284-10.252a96 96 0 0 0 69.684 157.353q2.061.088 4.112.088a95.657 95.657 0 0 0 61.415-22.23l-10.252-12.284a79.754 79.754 0 0 1 -54.598 18.441z"/><path d="m408 360h16v16h-16z"/><path d="m32 312h16v16h-16z"/><path d="m80 96h24v16h-24z"/><path d="m419.313 72h30.063a24 24 0 1 0 0-16h-33.376a8 8 0 0 0 -5.657 2.343l-60 60a8 8 0 0 0 -2.343 5.657v19.836a278.936 278.936 0 0 0 -36-10.07v-18.453l29.657-29.656a8 8 0 0 0 2.343-5.657v-17.376a24 24 0 1 0 -16 0v14.063l-29.657 29.656a8 8 0 0 0 -2.343 5.657v18.923a274 274 0 0 0 -32-2.806v-56.117a8 8 0 0 0 -2.343-5.657l-16-16a24.007 24.007 0 1 0 -11.314 11.315l13.657 13.655v52.8a274 274 0 0 0 -32 2.806v-42.919a8 8 0 0 0 -2.343-5.657l-32-32-.006.006a24.008 24.008 0 1 0 -11.3 11.3l-.006.006 29.655 29.658v42.453q-6.078 1.266-12.111 2.809l-70.232-70.232a8 8 0 0 0 -5.657-2.343h-49.376a24 24 0 1 0 0 16h46.063l61.676 61.677a293.173 293.173 0 0 0 -41.44 17.186q-2.232 1.13-4.444 2.3l-30.822-30.82a8 8 0 0 0 -5.657-2.343h-25.376a24 24 0 1 0 0 16h22.063l25.3 25.306c-34.162 20.432-65.118 47.835-92.231 81.694a8 8 0 0 0 0 10c25.794 32.21 55.067 58.576 87.271 78.657l-20.34 20.343h-22.063a24 24 0 1 0 0 16h25.376a8 8 0 0 0 5.657-2.343l25.628-25.627q4.78 2.639 9.638 5.107 6.267 3.173 12.608 6.017l-40.844 40.846h-28.687v16h32a8 8 0 0 0 5.657-2.343l47.871-47.87q12.446 4.733 25.126 8.245l-73.967 73.968h-22.063a24 24 0 1 0 0 16h25.376a8 8 0 0 0 5.657-2.343l83.24-83.24q7.519 1.541 15.1 2.66v15.61l-29.657 29.656a8 8 0 0 0 -2.34 5.657v17.376a24 24 0 1 0 16 0v-14.063l29.657-29.656a8 8 0 0 0 2.343-5.657v-17.048q7.971.7 16 .931v65.493a24 24 0 1 0 16 0v-65.493q12.065-.348 24-1.749v33.866a8 8 0 0 0 2.343 5.657l21.657 21.656v6.063a24 24 0 1 0 16 0v-9.376a8 8 0 0 0 -2.343-5.657l-21.657-21.656v-32.909q12.087-2.147 24-5.378v17.6a8 8 0 0 0 2.343 5.657l48 48a24.009 24.009 0 1 0 11.315-11.315l-45.658-45.655v-19.145q12.112-4.074 24-9.286v15.744a8 8 0 0 0 2.343 5.657l32 32a8 8 0 0 0 5.657 2.343h41.376a24 24 0 1 0 0-16h-38.063l-27.313-27.313v-20.026a311.058 311.058 0 0 0 33.493-19.853l16.85 16.849a8 8 0 0 0 5.657 2.343h9.376a24 24 0 1 0 0-16h-6.063l-12.648-12.649a359.284 359.284 0 0 0 63.579-62.351 8 8 0 0 0 0-10c-28.442-35.518-61.116-63.928-97.286-84.643l30.355-30.357h22.063a24 24 0 1 0 0-16h-25.376a8 8 0 0 0 -5.657 2.343l-36.1 36.1q-9.049-4.543-18.243-8.42v-22.71zm52.687-16a8 8 0 1 1 -8 8 8.009 8.009 0 0 1 8-8zm-136-24a8 8 0 1 1 -8 8 8.009 8.009 0 0 1 8-8zm-112 16a8 8 0 1 1 8-8 8.009 8.009 0 0 1 -8 8zm-64 0a8 8 0 1 1 8-8 8.009 8.009 0 0 1 -8 8zm-120 32a8 8 0 1 1 8-8 8.009 8.009 0 0 1 -8 8zm0 64a8 8 0 1 1 8-8 8.009 8.009 0 0 1 -8 8zm0 232a8 8 0 1 1 8-8 8.009 8.009 0 0 1 -8 8zm24 88a8 8 0 1 1 8-8 8.009 8.009 0 0 1 -8 8zm128 16a8 8 0 1 1 8-8 8.009 8.009 0 0 1 -8 8zm128-16a8 8 0 1 1 -8 8 8.009 8.009 0 0 1 8-8zm80-16a8 8 0 1 1 -8 8 8.009 8.009 0 0 1 8-8zm72-48a8 8 0 1 1 -8 8 8.009 8.009 0 0 1 8-8zm0-64a8 8 0 1 1 -8 8 8.009 8.009 0 0 1 8-8zm0-216a8 8 0 1 1 -8 8 8.009 8.009 0 0 1 8-8zm-437.681 136c40.01-48.258 88.3-82 140.757-99.1a127.838 127.838 0 0 0 0 198.192c-52.457-17.092-100.747-50.834-140.757-99.092zm221.681 224a8 8 0 1 1 8-8 8.009 8.009 0 0 1 -8 8zm0-112a112 112 0 1 1 112-112 112.127 112.127 0 0 1 -112 112zm221.681-112c-40.01 48.258-88.3 82-140.757 99.1a127.838 127.838 0 0 0 0-198.192c52.457 17.092 100.747 50.834 140.757 99.092z"/><path d="m464 176h16v16h-16z"/><path d="m384 32h16v16h-16z"/></g></svg>